<svg xmlns="http://www.w3.org/2000/svg" width="166.602" height="30.782" viewBox="0 0 166.602 30.782">
  <g id="Group_449" data-name="Group 449" transform="translate(-688.5 12718.546)">
    <path id="Path_311" data-name="Path 311" d="M74.921,0A10.312,10.312,0,0,1,79.1.85a10.855,10.855,0,0,1,5.707,5.732,10.489,10.489,0,0,1,.85,4.2V30.771L81.381,28.2V16.466H68.8V30.771L64.478,28.2V0ZM68.8,12.192h12.58V10.783a6.228,6.228,0,0,0-.51-2.525,6.586,6.586,0,0,0-1.384-2.04,6.518,6.518,0,0,0-2.064-1.385,6.288,6.288,0,0,0-2.5-.51H68.8Z" transform="translate(651.076 -12718.546)"/>
    <path id="Path_312" data-name="Path 312" d="M145.86,0h4.274V5.149a6.31,6.31,0,0,1-2.283,4.954L142.9,14.329l4.954,4.226a6.107,6.107,0,0,1,1.7,2.21,6.465,6.465,0,0,1,.583,2.7v7.311L145.86,28.2V23.46a1.98,1.98,0,0,0-.777-1.6l-5.537-4.712-5.537,4.712a1.94,1.94,0,0,0-.729,1.6v7.311L128.957,28.2V23.46a6.465,6.465,0,0,1,.583-2.7,6.1,6.1,0,0,1,1.7-2.21l5-4.226-5-4.226a6.307,6.307,0,0,1-2.283-4.954V0h4.323V5.149a1.993,1.993,0,0,0,.729,1.651l5.537,4.712L145.083,6.8a2.027,2.027,0,0,0,.777-1.651Z" transform="translate(613.652 -12718.546)"/>
    <path id="Path_313" data-name="Path 313" d="M197.76,0V30.771L193.437,28.2V0Z" transform="translate(576.227 -12718.546)"/>
    <path id="Path_314" data-name="Path 314" d="M228.219,1.651A6.658,6.658,0,0,1,230.186.437,6.28,6.28,0,0,1,232.542,0h6.266V30.771L234.533,28.2V4.323h-1.991a2.111,2.111,0,0,0-1.554.631,2.053,2.053,0,0,0-.632,1.505V30.771L226.082,28.2V6.46a2.056,2.056,0,0,0-.632-1.505,2.113,2.113,0,0,0-1.554-.631h-1.943V30.771L217.63,28.2V0H223.9a6.475,6.475,0,0,1,2.38.437,6,6,0,0,1,1.943,1.214" transform="translate(562.185 -12718.546)"/>
    <path id="Path_315" data-name="Path 315" d="M10.589,1.651A6.665,6.665,0,0,1,12.556.437,6.28,6.28,0,0,1,14.912,0h6.266V30.771L16.9,28.2V4.323H14.912a2.111,2.111,0,0,0-1.554.631,2.053,2.053,0,0,0-.632,1.505V30.771L8.452,28.2V6.46A2.056,2.056,0,0,0,7.82,4.954a2.113,2.113,0,0,0-1.554-.631H4.323V30.771L0,28.2V0H6.266a6.475,6.475,0,0,1,2.38.437,5.992,5.992,0,0,1,1.943,1.214" transform="translate(688.5 -12718.546)"/>
    <path id="Path_316" data-name="Path 316" d="M361.306,0a6.236,6.236,0,0,1,2.526.51,6.589,6.589,0,0,1,2.04,1.384,6.512,6.512,0,0,1,1.385,2.064,6.288,6.288,0,0,1,.51,2.5V9.326h-4.274V6.46a2.056,2.056,0,0,0-.631-1.505,2.115,2.115,0,0,0-1.554-.631h-8.257a2.156,2.156,0,0,0-2.137,2.137v3.546a2.111,2.111,0,0,0,.632,1.555,2.055,2.055,0,0,0,1.506.631h8.257a6.236,6.236,0,0,1,2.526.51,6.557,6.557,0,0,1,3.424,3.424,6.114,6.114,0,0,1,.51,2.477v2.222a6.291,6.291,0,0,1-.85,3.181,6.44,6.44,0,0,1-2.307,2.356l-7.432,4.42-7.431-4.42a6.429,6.429,0,0,1-2.307-2.356,6.279,6.279,0,0,1-.85-3.181V19.332h4.323v1.493a2.039,2.039,0,0,0,1.02,1.846l5.245,3.108,5.246-3.108a2.183,2.183,0,0,0,.777-.8,2.082,2.082,0,0,0,.291-1.044V18.6a2.057,2.057,0,0,0-.631-1.506,2.115,2.115,0,0,0-1.554-.631h-8.257a6.279,6.279,0,0,1-2.5-.51,6.5,6.5,0,0,1-2.064-1.384,6.6,6.6,0,0,1-1.384-2.04,6.235,6.235,0,0,1-.51-2.526V6.46a6.288,6.288,0,0,1,.51-2.5A6.423,6.423,0,0,1,350.547.51a6.286,6.286,0,0,1,2.5-.51Z" transform="translate(487.336 -12718.546)"/>
    <path id="Path_317" data-name="Path 317" d="M298.964,0V20.825a2.04,2.04,0,0,1-1.02,1.846l-1.548.917-3.7,2.191L289,23.588l-1.549-.917a2.04,2.04,0,0,1-1.02-1.846V0H282.11V20.825a6.284,6.284,0,0,0,.85,3.181,6.437,6.437,0,0,0,2.307,2.356L289,28.583v.009l3.679,2.179.018.01.018-.01,3.679-2.179v-.009l3.734-2.221a6.43,6.43,0,0,0,2.307-2.356,6.28,6.28,0,0,0,.85-3.181V0Z" transform="translate(524.76 -12718.546)"/>
  </g>
</svg>
