<svg xmlns="http://www.w3.org/2000/svg" xmlns:xlink="http://www.w3.org/1999/xlink" width="1140.595" height="210.74" viewBox="0 0 1140.595 210.74">
  <defs>
    <clipPath id="clip-path">
      <rect id="Rectangle_408" data-name="Rectangle 408" width="1140.595" height="210.74" fill="#fff"/>
    </clipPath>
  </defs>
  <g id="Group_360" data-name="Group 360" clip-path="url(#clip-path)">
    <path id="Path_318" data-name="Path 318" d="M135.974,0a70.6,70.6,0,0,1,28.6,5.82,74.319,74.319,0,0,1,39.073,39.24,71.811,71.811,0,0,1,5.82,28.763V210.668L180.2,193.045V112.729H94.074v97.938l-29.6-17.623V0Zm-41.9,83.466H180.2V73.823a42.642,42.642,0,0,0-3.493-17.29,45.09,45.09,0,0,0-9.477-13.967,44.626,44.626,0,0,0-14.133-9.48,43.05,43.05,0,0,0-17.124-3.49h-41.9Z" transform="translate(120.742 -0.001)" fill="#fff"/>
    <path id="Path_319" data-name="Path 319" d="M244.68,0h29.263V35.25q0,20.286-15.63,33.92L224.4,98.1l33.917,28.93a41.813,41.813,0,0,1,11.64,15.13,44.262,44.262,0,0,1,3.99,18.456v50.052L244.68,193.045V160.616a13.557,13.557,0,0,0-5.32-10.973l-37.91-32.256-37.907,32.256a13.281,13.281,0,0,0-4.99,10.973v50.052l-29.6-17.623V160.616a44.262,44.262,0,0,1,3.99-18.456,41.782,41.782,0,0,1,11.64-15.13l34.25-28.93-34.25-28.93q-15.637-13.633-15.63-33.92V0h29.6V35.25q0,7.321,4.99,11.307L201.45,78.813l37.91-32.256a13.879,13.879,0,0,0,5.32-11.307Z" transform="translate(241.485 -0.001)" fill="#fff"/>
    <path id="Path_320" data-name="Path 320" d="M223.033,0V210.668l-29.6-17.623V0Z" transform="translate(362.229 -0.001)" fill="#fff"/>
    <path id="Path_321" data-name="Path 321" d="M290.126,11.307A45.578,45.578,0,0,1,303.59,2.993,43,43,0,0,1,319.719,0h42.9V210.668l-29.263-17.623V29.6H319.719a14.449,14.449,0,0,0-10.64,4.323,14.053,14.053,0,0,0-4.326,10.307V210.668l-29.26-17.623V44.227a14.075,14.075,0,0,0-4.326-10.307,14.468,14.468,0,0,0-10.64-4.323h-13.3V210.668l-29.6-17.623V0h42.9a44.326,44.326,0,0,1,16.3,2.993,41.063,41.063,0,0,1,13.3,8.313" transform="translate(407.534 -0.001)" fill="#fff"/>
    <path id="Path_322" data-name="Path 322" d="M72.493,11.307A45.632,45.632,0,0,1,85.96,2.993,43,43,0,0,1,102.089,0h42.9V210.668l-29.263-17.623V29.6H102.089a14.45,14.45,0,0,0-10.64,4.323,14.053,14.053,0,0,0-4.326,10.307V210.668l-29.26-17.623V44.227A14.075,14.075,0,0,0,53.537,33.92,14.468,14.468,0,0,0,42.9,29.6H29.6V210.668L0,193.045V0H42.9a44.326,44.326,0,0,1,16.3,2.993,41.019,41.019,0,0,1,13.3,8.313" transform="translate(0 -0.001)" fill="#fff"/>
    <path id="Path_323" data-name="Path 323" d="M447.345,0a42.7,42.7,0,0,1,17.293,3.493A45.114,45.114,0,0,1,478.6,12.97,44.579,44.579,0,0,1,488.082,27.1a43.049,43.049,0,0,1,3.49,17.124v19.62H462.309V44.227a14.077,14.077,0,0,0-4.323-10.307,14.479,14.479,0,0,0-10.64-4.323h-56.53a14.762,14.762,0,0,0-14.633,14.63V68.5a14.454,14.454,0,0,0,4.323,10.643,14.071,14.071,0,0,0,10.31,4.32h56.53a42.7,42.7,0,0,1,17.293,3.493A44.891,44.891,0,0,1,488.082,110.4a41.859,41.859,0,0,1,3.49,16.96v15.21a43.073,43.073,0,0,1-5.817,21.78,44.088,44.088,0,0,1-15.8,16.127l-50.88,30.263L368.2,180.48a44.013,44.013,0,0,1-15.794-16.127,42.99,42.99,0,0,1-5.82-21.78V132.349h29.594v10.224a13.96,13.96,0,0,0,6.986,12.637l35.91,21.28,35.914-21.28a14.949,14.949,0,0,0,5.323-5.487,14.253,14.253,0,0,0,1.993-7.15v-15.21a14.084,14.084,0,0,0-4.323-10.31,14.479,14.479,0,0,0-10.64-4.323h-56.53a42.986,42.986,0,0,1-17.126-3.493,44.53,44.53,0,0,1-14.133-9.474A45.2,45.2,0,0,1,350.079,85.8a42.686,42.686,0,0,1-3.49-17.293V44.227a43.045,43.045,0,0,1,3.49-17.124,43.969,43.969,0,0,1,23.61-23.61A43.036,43.036,0,0,1,390.816,0Z" transform="translate(649.023 -0.001)" fill="#fff"/>
    <path id="Path_324" data-name="Path 324" d="M397.5,0V142.573a13.963,13.963,0,0,1-6.983,12.637l-10.6,6.279-25.313,15-25.311-15-10.6-6.279a13.963,13.963,0,0,1-6.984-12.637V0H282.11V142.573a43.024,43.024,0,0,0,5.817,21.78,44.067,44.067,0,0,0,15.8,16.127l25.566,15.208v.06l25.19,14.92.121.072.123-.072,25.19-14.92v-.06l25.563-15.208a44.025,44.025,0,0,0,15.8-16.127,43,43,0,0,0,5.82-21.78V0Z" transform="translate(528.279 -0.001)" fill="#fff"/>
  </g>
</svg>
